<?xml version="1.0" encoding="iso-8859-1"?>
<!-- Uploaded to: SVG Repo, www.svgrepo.com, Generator: SVG Repo Mixer Tools -->
<svg version="1.1" id="Layer_1" xmlns="http://www.w3.org/2000/svg" xmlns:xlink="http://www.w3.org/1999/xlink" 
	 viewBox="0 0 494.4 494.4" xml:space="preserve">
<path style="fill:#82AFAF;" d="M427.2,479.2c0,8.8-7.2,15.2-15.2,15.2H82.4c-8.8,0-15.2-7.2-15.2-15.2v-464C67.2,6.4,74.4,0,82.4,0
	h328.8c8.8,0,15.2,7.2,15.2,15.2v464H427.2z"/>
<path style="fill:#76A3A2;" d="M67.2,15.2C67.2,6.4,74.4,0,82.4,0h328.8c8.8,0,15.2,7.2,15.2,15.2v464c0,8.8-7.2,15.2-15.2,15.2"/>
<g>
	<polygon style="fill:#669694;" points="427.2,262.4 303.2,136.8 192,136.8 427.2,374.4 	"/>
	<path style="fill:#669694;" d="M412,23.2H82.4c-8.8,0-15.2,7.2-15.2,15.2v90.4h360V38.4C427.2,30.4,420,23.2,412,23.2z"/>
</g>
<path style="fill:#A3D0D1;" d="M412,0H82.4c-8,0-15.2,7.2-15.2,15.2v90.4h360V15.2C427.2,7.2,420,0,412,0z"/>
<path style="fill:#91C4C4;" d="M427.2,106.4V15.2C427.2,6.4,420,0,412,0H82.4c-8,0-15.2,7.2-15.2,15.2"/>
<path style="fill:#B3E0E0;" d="M412,0H82.4c-8,0-15.2,7.2-15.2,15.2v7.2c0-8.8,7.2-15.2,15.2-15.2h328.8c8.8,0,15.2,7.2,15.2,15.2
	v-7.2C427.2,7.2,420,0,412,0z"/>
<path style="fill:#A3D0D1;" d="M67.2,464.8v14.4c0,8.8,7.2,15.2,15.2,15.2h328.8c8.8,0,15.2-7.2,15.2-15.2v-14.4H67.2z"/>
<rect x="67.2" y="99.2" style="fill:#B3E0E0;" width="360" height="7.2"/>
<path style="fill:#A3D0D1;" d="M308,136.8c0,5.6-4,9.6-9.6,9.6H196c-5.6,0-9.6-4-9.6-9.6l0,0c0-5.6,4-9.6,9.6-9.6h103.2
	C304,127.2,308,132,308,136.8L308,136.8z"/>
<path style="fill:#B3E0E0;" d="M298.4,127.2H196c-4,0-8,2.4-8.8,6.4c1.6,4,4.8,6.4,8.8,6.4h103.2c4,0,8-2.4,8.8-6.4
	C306.4,130.4,303.2,127.2,298.4,127.2z"/>
<path style="fill:#137D8E;" d="M124,52c0,10.4-8,18.4-18.4,18.4s-18.4-8-18.4-18.4s8-20,18.4-20C116,32,124,41.6,124,52z"/>
<path style="fill:#72A2A5;" d="M124,52c0,10.4-8,27.2-18.4,27.2S87.2,61.6,87.2,52c0-10.4,8-17.6,18.4-17.6
	C116,34.4,124,41.6,124,52z"/>
<circle style="fill:#185B6B;" cx="105.6" cy="52" r="18.4"/>
<path style="fill:#073B44;" d="M119.2,38.4c7.2,7.2,7.2,19.2,0,26.4s-19.2,7.2-26.4,0"/>
<circle style="fill:#B8D7E0;" cx="115.2" cy="42.4" r="1.6"/>
<path style="fill:#137D8E;" d="M168.8,52c0,10.4-8,18.4-18.4,18.4S132,62.4,132,52s8-20,18.4-20C160.8,32,168.8,41.6,168.8,52z"/>
<path style="fill:#72A2A5;" d="M168.8,52c0,10.4-8,27.2-18.4,27.2S132,62.4,132,52s8-17.6,18.4-17.6C160.8,34.4,168.8,41.6,168.8,52
	z"/>
<circle style="fill:#185B6B;" cx="150.4" cy="52" r="18.4"/>
<path style="fill:#073B44;" d="M163.2,38.4c7.2,7.2,7.2,19.2,0,26.4s-19.2,7.2-26.4,0"/>
<circle style="fill:#B8D7E0;" cx="160" cy="42.4" r="1.6"/>
<path style="fill:#137D8E;" d="M213.6,52c0,10.4-8,18.4-18.4,18.4s-18.4-8-18.4-18.4s8-20,18.4-20C205.6,32,213.6,41.6,213.6,52z"/>
<path style="fill:#72A2A5;" d="M213.6,52c0,10.4-8,27.2-18.4,27.2S176.8,62.4,176.8,52s8-17.6,18.4-17.6
	C205.6,34.4,213.6,41.6,213.6,52z"/>
<circle style="fill:#185B6B;" cx="195.2" cy="52" r="18.4"/>
<path style="fill:#073B44;" d="M208,38.4c7.2,7.2,7.2,19.2,0,26.4s-19.2,7.2-26.4,0"/>
<circle style="fill:#B8D7E0;" cx="204.8" cy="42.4" r="1.6"/>
<path style="fill:#53AD8A;" d="M398.4,67.2c0,4-3.2,7.2-7.2,7.2H290.4c-4,0-7.2-3.2-7.2-7.2V41.6c0-4,3.2-7.2,7.2-7.2h100.8
	c4,0,7.2,3.2,7.2,7.2V67.2z"/>
<path style="fill:#3CA589;" d="M391.2,34.4H290.4c-4,0-7.2,3.2-7.2,7.2v23.2c0,4,3.2,7.2,7.2,7.2h100.8c4,0,7.2-3.2,7.2-7.2V41.6
	C398.4,37.6,395.2,34.4,391.2,34.4z"/>
<path style="fill:#319385;" d="M283.2,64.8c0,4,3.2,7.2,7.2,7.2h100.8c4,0,7.2-3.2,7.2-7.2V41.6c0-4-3.2-7.2-7.2-7.2"/>
</svg>