<?xml version="1.0" encoding="iso-8859-1"?>
<!-- Uploaded to: SVG Repo, www.svgrepo.com, Generator: SVG Repo Mixer Tools -->
<svg height="800px" width="800px" version="1.1" id="Layer_1" xmlns="http://www.w3.org/2000/svg" xmlns:xlink="http://www.w3.org/1999/xlink" 
	 viewBox="0 0 512 512" xml:space="preserve">
<path style="fill:#EBC9A0;" d="M379.586,512H132.414c-4.875,0-8.828-3.953-8.828-8.828V8.828c0-4.875,3.953-8.828,8.828-8.828
	h247.172c4.875,0,8.828,3.953,8.828,8.828v494.345C388.414,508.047,384.461,512,379.586,512z"/>
<g>
	<path style="fill:#E4EAF8;" d="M229.517,203.034h-61.793c-4.875,0-8.828-3.953-8.828-8.828V44.138c0-4.875,3.953-8.828,8.828-8.828
		h61.793c4.875,0,8.828,3.953,8.828,8.828v150.069C238.345,199.082,234.392,203.034,229.517,203.034z"/>
	<path style="fill:#E4EAF8;" d="M344.276,203.034h-61.793c-4.875,0-8.828-3.953-8.828-8.828V44.138c0-4.875,3.953-8.828,8.828-8.828
		h61.793c4.875,0,8.828,3.953,8.828,8.828v150.069C353.103,199.082,349.151,203.034,344.276,203.034z"/>
</g>
<g>
	<path style="fill:#D7AF87;" d="M229.517,335.448h-61.793c-4.875,0-8.828-3.953-8.828-8.828v-79.448
		c0-4.875,3.953-8.828,8.828-8.828h61.793c4.875,0,8.828,3.953,8.828,8.828v79.448C238.345,331.496,234.392,335.448,229.517,335.448
		z"/>
	<path style="fill:#D7AF87;" d="M344.276,335.448h-61.793c-4.875,0-8.828-3.953-8.828-8.828v-79.448
		c0-4.875,3.953-8.828,8.828-8.828h61.793c4.875,0,8.828,3.953,8.828,8.828v79.448C353.103,331.496,349.151,335.448,344.276,335.448
		z"/>
	<path style="fill:#D7AF87;" d="M229.517,476.69h-61.793c-4.875,0-8.828-3.953-8.828-8.828v-88.276c0-4.875,3.953-8.828,8.828-8.828
		h61.793c4.875,0,8.828,3.953,8.828,8.828v88.276C238.345,472.737,234.392,476.69,229.517,476.69z"/>
	<path style="fill:#D7AF87;" d="M344.276,476.69h-61.793c-4.875,0-8.828-3.953-8.828-8.828v-88.276c0-4.875,3.953-8.828,8.828-8.828
		h61.793c4.875,0,8.828,3.953,8.828,8.828v88.276C353.103,472.737,349.151,476.69,344.276,476.69z"/>
</g>
<path style="fill:#5B5D6E;" d="M353.103,273.655h-17.655v-26.483c0-4.866-3.957-8.828-8.828-8.828c-4.871,0-8.828,3.961-8.828,8.828
	v26.483h-17.655v-26.483c0-14.603,11.88-26.483,26.483-26.483c14.603,0,26.483,11.88,26.483,26.483V273.655z"/>
<g>
	<polygon style="fill:#FFFFFF;" points="158.897,83.103 238.345,162.551 238.345,137.586 158.897,58.137 	"/>
	<polygon style="fill:#FFFFFF;" points="273.655,83.103 353.103,162.551 353.103,137.586 273.655,58.137 	"/>
</g>
<path style="fill:#FF5050;" d="M326.621,308.966L326.621,308.966c-14.626,0-26.483-11.857-26.483-26.483v-8.828
	c0-4.875,3.953-8.828,8.828-8.828h35.31c4.875,0,8.828,3.953,8.828,8.828v8.828C353.103,297.109,341.247,308.966,326.621,308.966z"
	/>
<path style="fill:#464655;" d="M326.621,291.31c-4.879,0-8.828-3.953-8.828-8.828v-8.828c0-4.875,3.948-8.828,8.828-8.828
	c4.879,0,8.828,3.953,8.828,8.828v8.828C335.448,287.358,331.5,291.31,326.621,291.31z"/>
</svg>