<?xml version="1.0" encoding="iso-8859-1"?>
<!-- Uploaded to: SVG Repo, www.svgrepo.com, Generator: SVG Repo Mixer Tools -->
<svg height="800px" width="800px" version="1.1" id="Layer_1" xmlns="http://www.w3.org/2000/svg" xmlns:xlink="http://www.w3.org/1999/xlink" 
	 viewBox="0 0 512 512" xml:space="preserve">
<path style="fill:#F8E99B;" d="M195.048,402.286c0-115.81-109.714-115.81-109.714-231.619C85.333,76.411,161.744,0,256,0
	s170.667,76.411,170.667,170.667c0,115.81-109.714,115.81-109.714,231.619"/>
<path style="fill:#F6E27D;" d="M426.667,170.667C426.667,76.411,350.256,0,256,0h-0.001v402.286h60.954
	C316.952,286.476,426.667,286.476,426.667,170.667z"/>
<polygon style="fill:#FFFFFF;" points="330.748,182.729 304.889,156.871 256,205.759 207.11,156.871 181.252,182.729 
	237.714,239.193 237.714,402.286 274.286,402.286 274.286,239.193 "/>
<path style="fill:#D8D8DA;" d="M341.332,384H170.667v36.571h24.381v30.476C195.048,484.71,222.337,512,256,512
	s60.952-27.29,60.952-60.952v-30.476h24.38V384z"/>
<path style="fill:#C6C5CA;" d="M256,384v128c33.663,0,60.952-27.29,60.952-60.952v-30.476h24.38V384H256z"/>
</svg>