<?xml version="1.0" encoding="iso-8859-1"?>
<!-- Uploaded to: SVG Repo, www.svgrepo.com, Generator: SVG Repo Mixer Tools -->
<svg height="800px" width="800px" version="1.1" id="Layer_1" xmlns="http://www.w3.org/2000/svg" xmlns:xlink="http://www.w3.org/1999/xlink" 
	 viewBox="0 0 512 512" xml:space="preserve">
<path style="fill:#79CAE8;" d="M451.918,478.041H60.082V28.735c0-11.542,9.356-20.898,20.898-20.898H431.02
	c11.542,0,20.898,9.356,20.898,20.898V478.041z"/>
<g>
	<polygon style="fill:#4B92B9;" points="412.996,504.163 381.649,504.163 371.2,478.041 412.996,478.041 	"/>
	<polygon style="fill:#4B92B9;" points="130.351,504.163 99.004,504.163 99.004,478.041 140.8,478.041 	"/>
</g>
<path style="fill:#CAF9F4;" d="M148.97,323.396h-31.347c-11.542,0-20.898-9.356-20.898-20.898l0,0
	c0-11.542,9.356-20.898,20.898-20.898h31.347V323.396z"/>
<path style="fill:#4B92B9;" d="M451.918,28.735v63.53c-45.683,26.54-116.464,43.572-195.918,43.572S105.765,118.805,60.082,92.264
	v-63.53c0-11.542,9.356-20.898,20.898-20.898H431.02C442.562,7.837,451.918,17.193,451.918,28.735z"/>
<path style="fill:#CAF9F4;" d="M298.841,97.176h-85.682c-5.771,0-10.449-4.678-10.449-10.449V43.886
	c0-5.771,4.678-10.449,10.449-10.449h85.682c5.771,0,10.449,4.678,10.449,10.449v42.841
	C309.29,92.497,304.612,97.176,298.841,97.176z"/>
<circle style="fill:#FFFFFF;" cx="133.245" cy="65.306" r="29.78"/>
<g>
	<circle style="fill:#CAF9F4;" cx="348.756" cy="66.612" r="17.241"/>
	<circle style="fill:#CAF9F4;" cx="404.135" cy="66.612" r="17.241"/>
</g>
<circle style="fill:#4B92B9;" cx="256" cy="302.498" r="120.686"/>
<circle style="fill:#FFFFFF;" cx="256" cy="302.498" r="88.816"/>
<path d="M459.755,28.735C459.755,12.891,446.864,0,431.02,0H80.98C65.136,0,52.245,12.891,52.245,28.735v457.143h38.922V512h44.49
	l10.449-26.122h219.788L376.343,512h44.49v-26.122h38.922V28.735z M80.98,15.673H431.02c7.202,0,13.061,5.859,13.061,13.061v58.954
	C397.616,113.343,329.427,128,256,128S114.384,113.343,67.918,87.689V28.735C67.918,21.532,73.777,15.673,80.98,15.673z
	 M125.045,496.327h-18.204v-10.449h22.384L125.045,496.327z M405.159,496.327h-18.204l-4.18-10.449h22.384V496.327z M67.918,470.204
	V105.398C116.29,129.817,183.861,143.673,256,143.673s139.71-13.857,188.082-38.276v364.806H67.918z"/>
<path d="M213.159,105.012h85.682c10.082,0,18.286-8.203,18.286-18.286V43.886c0-10.082-8.204-18.286-18.286-18.286h-85.682
	c-10.082,0-18.286,8.203-18.286,18.286v42.841C194.873,96.809,203.077,105.012,213.159,105.012z M210.547,43.886
	c0-1.441,1.171-2.612,2.612-2.612h85.682c1.441,0,2.612,1.171,2.612,2.612v42.841c0,1.441-1.171,2.612-2.612,2.612h-85.682
	c-1.441,0-2.612-1.171-2.612-2.612V43.886z"/>
<path d="M123.97,85.194c-6.931-3.233-11.609-9.703-12.516-17.309L95.89,69.738c1.552,13.032,9.572,24.119,21.454,29.662
	c5.101,2.377,10.524,3.554,15.924,3.554c7.182,0,14.32-2.082,20.588-6.186l-8.586-13.112
	C138.864,87.849,130.899,88.426,123.97,85.194z"/>
<path d="M179.17,78.076l-9.268-4.322c0.975-4.213,1.216-8.569,0.693-12.879c-1.552-13.031-9.572-24.119-21.454-29.662
	c-11.884-5.541-25.533-4.558-36.497,2.622c-3.648,2.376-6.833,5.363-9.435,8.819l-9.267-4.322l-6.625,14.204l85.229,39.743
	L179.17,78.076z M121.213,46.957c6.408-4.193,14.37-4.769,21.302-1.539c6.931,3.233,11.609,9.703,12.517,17.326
	c0.166,1.371,0.189,2.749,0.092,4.118l-37.14-17.318C118.974,48.588,120.049,47.715,121.213,46.957z"/>
<path d="M348.752,91.69c13.827,0,25.078-11.25,25.078-25.078s-11.25-25.078-25.078-25.078s-25.078,11.25-25.078,25.078
	S334.924,91.69,348.752,91.69z M348.752,57.208c5.186,0,9.404,4.218,9.404,9.404c0,5.186-4.218,9.404-9.404,9.404
	s-9.404-4.218-9.404-9.404C339.348,61.426,343.567,57.208,348.752,57.208z"/>
<path d="M404.132,91.69c13.827,0,25.078-11.25,25.078-25.078s-11.25-25.078-25.078-25.078c-13.827,0-25.078,11.25-25.078,25.078
	S390.304,91.69,404.132,91.69z M404.132,57.208c5.186,0,9.404,4.218,9.404,9.404c0,5.186-4.218,9.404-9.404,9.404
	c-5.186,0-9.404-4.218-9.404-9.404C394.728,61.426,398.946,57.208,404.132,57.208z"/>
<path d="M256,173.976c-60.992,0-112.195,42.708-125.281,99.788h-13.095c-7.687,0-14.905,2.993-20.317,8.419
	c-5.427,5.428-8.418,12.644-8.418,20.316c0,15.844,12.891,28.735,28.735,28.735h13.095c13.086,57.08,64.289,99.788,125.281,99.788
	c70.867,0,128.522-57.655,128.522-128.522S326.867,173.976,256,173.976z M117.624,315.559c-7.202,0-13.061-5.859-13.061-13.061
	c0-3.486,1.359-6.766,3.835-9.241c2.458-2.464,5.733-3.82,9.226-3.82h10.513c-0.436,4.296-0.659,8.653-0.659,13.061
	s0.224,8.766,0.659,13.061H117.624z M256,415.347c-62.226,0-112.849-50.623-112.849-112.849S193.774,189.649,256,189.649
	s112.849,50.623,112.849,112.849S318.226,415.347,256,415.347z"/>
<path d="M256,205.845c-53.295,0-96.653,43.358-96.653,96.653s43.358,96.653,96.653,96.653s96.653-43.358,96.653-96.653
	S309.295,205.845,256,205.845z M256,383.478c-44.652,0-80.98-36.328-80.98-80.98s36.328-80.98,80.98-80.98s80.98,36.328,80.98,80.98
	S300.652,383.478,256,383.478z"/>
</svg>